<svg class="svg-anim-title" viewBox="0 0 900 120" xmlns="http://www.w3.org/2000/svg" xml:space="preserve" overflow="visible">
  <g>
    <path d="M30,100 L30,20 L50,20 L50,40 L70,40 L70,20 L90,20 L90,100 L70,100 L70,60 L50,60 L50,100 Z" />
    <path d="M110,100 L110,20 L130,20 L130,100 Z" />
    <path d="M150,100 L150,20 L170,20 L170,100 Z" />
    <path d="M190,100 L190,20 L210,20 L210,100 Z" />
    <path d="M230,100 L230,20 L250,20 L250,100 Z" />
    <path d="M270,100 L270,20 L290,20 L290,100 Z" />
    <!-- Spazio -->
    <path d="M330,100 L330,20 L350,20 L350,100 Z" />
    <path d="M370,100 L370,20 L390,20 L390,100 Z" />
    <!-- Spazio -->
    <path d="M430,100 L430,20 L450,20 L450,100 Z" />
    <path d="M470,100 L470,20 L490,20 L490,100 Z" />
    <path d="M510,100 L510,20 L530,20 L530,100 Z" />
    <path d="M550,100 L550,20 L570,20 L570,100 Z" />
    <path d="M590,100 L590,20 L610,20 L610,100 Z" />
    <path d="M630,100 L630,20 L650,20 L650,100 Z" />
    <path d="M670,100 L670,20 L690,20 L690,100 Z" />
    <path d="M710,100 L710,20 L730,20 L730,100 Z" />
    <path d="M750,100 L750,20 L770,20 L770,100 Z" />
    <path d="M790,100 L790,20 L810,20 L810,100 Z" />
  </g>
</svg>
